<svg xmlns="http://www.w3.org/2000/svg" width="600" height="119.62" viewBox="0 0 600 119.62"><defs><style>.b6996a9a-e3e0-49a2-bb6d-a04c0692a19a{fill:#00ff1a;}.a390a087-ebe9-497e-8b5b-48319602dbe1{fill:#fff;}</style></defs><g id="acc8e45b-d047-4755-9426-433da1748dcf" data-name="Layer 2"><g id="b0358e4a-786c-4fee-a142-f6969bec42d3" data-name="Layer 1"><path class="b6996a9a-e3e0-49a2-bb6d-a04c0692a19a" d="M573.37,0H420.54a26.63,26.63,0,0,0-26.63,26.63h0a26.63,26.63,0,0,0,26.63,26.63H573.37A26.63,26.63,0,0,0,600,26.64h0A26.63,26.63,0,0,0,573.37,0Z"/><path d="M438.21,17.07V19.8H427.28v5.46h8.2V28h-8.2v8.2h-2.73V17.07Z"/><path d="M443.68,36.2H441V22.53h1.36V21.17h1.37V19.8h1.37V18.43h1.37V17.06h2.73v1.37h1.37V19.8h1.36v1.37h1.37v1.36h1.37V36.2h-2.73V30.73H443.7V36.2Zm0-8.2h8.19V23.9H450.5V22.53h-1.36V21.17h-2.73v1.36H445V23.9h-1.37V28Z"/><path d="M457.34,36.2V17.07h2.73v16.4H471V36.2Z"/><path d="M473.73,36.2V17.07h2.73v16.4H487.4V36.2Z"/><path d="M509.25,33.47h10.93V36.2H506.52V28h1.37V26.63h1.37V25.26h6.83V23.9h1.37V21.17h-1.37V19.8h-5.46v1.37h-1.37v1.36h-2.73V19.81h1.37V18.44h1.37V17.07h8.19v1.37h1.37v1.37h1.37v5.46h-1.37v1.37h-1.37V28h-6.83v1.37h-1.37v4.09Z"/><path d="M525.65,18.44V17.07h8.2v1.37h1.36v1.37h1.37V33.47h-1.37v1.36h-1.36V36.2h-8.2V34.83h-1.37V33.47h-1.37V19.81h1.37V18.44ZM527,28V26.63h1.37V25.26h1.36V23.9h1.37V22.53h2.73V21.16h-1.37V19.79H527v1.37h-1.37V28H527Zm-1.37,2.73V32.1H527v1.37h5.46V32.1h1.37V25.26h-1.37v1.37h-1.36V28h-1.37v1.37h-1.37v1.37h-2.73Z"/><path d="M542.05,33.47H553V36.2H539.32V28h1.37V26.63h1.36V25.26h6.84V23.9h1.37V21.17h-1.37V19.8h-5.47v1.37h-1.37v1.36h-2.73V19.81h1.37V18.44h1.37V17.07h8.2v1.37h1.36v1.37H553v5.46h-1.37v1.37h-1.36V28h-6.84v1.37h-1.37v4.09Z"/><path d="M558.44,33.47h10.94V36.2H555.72V28h1.36V26.63h1.37V25.26h6.83V23.9h1.37V21.17h-1.37V19.8h-5.46v1.37h-1.37v1.36h-2.73V19.81h1.37V18.44h1.37V17.07h8.19v1.37H568v1.37h1.37v5.46H568v1.37h-1.37V28h-6.83v1.37h-1.37v4.09Z"/><path class="a390a087-ebe9-497e-8b5b-48319602dbe1" d="M10.93,44.85H25.51V41.21h3.64V37.56h7.29v7.29H32.79V48.5H29.15v3.64H7.29V48.5H3.64V44.85H0V8.42H3.64V4.78H7.29V1.13H29.15V4.78h3.64V8.42h3.65v7.29H29.15V12.06H25.51V8.42H10.93v3.64H7.29V41.21h3.64v3.65Z"/><path class="a390a087-ebe9-497e-8b5b-48319602dbe1" d="M51,30.28V52.14H43.72v-51H51V23H72.87V1.13h7.29v51H72.87V30.28Z"/><path class="a390a087-ebe9-497e-8b5b-48319602dbe1" d="M97.21,52.14H89.93V15.7h3.64V12.06h3.64V8.41h3.65V4.78h3.64V1.13h7.29V4.78h3.64V8.42h3.65v3.64h3.64v3.65h3.65V52.14h-7.29V37.56H97.21Zm0-21.86h21.87V19.35h-3.65V15.7h-3.64V12.06H104.5V15.7h-3.64v3.65H97.21Z"/><path class="a390a087-ebe9-497e-8b5b-48319602dbe1" d="M136.59,52.14V44.85h7.29V8.42h-7.29V1.13h21.86V8.42h-7.29V44.85h7.29v7.29Z"/><path class="a390a087-ebe9-497e-8b5b-48319602dbe1" d="M176,23V52.14h-7.28v-51H176V12.06h3.65v3.65h3.64v3.64h3.65V23h3.64v3.64h3.64v3.64h3.65V1.13h7.29v51h-7.29V41.21h-3.65V37.56h-3.64V33.92h-3.64V30.28h-3.65V26.63H179.6V23Z"/><path class="a390a087-ebe9-497e-8b5b-48319602dbe1" d="M214.87,52.14v-51h7.29V44.85h29.15v7.29H214.87Z"/><path class="a390a087-ebe9-497e-8b5b-48319602dbe1" d="M260.28,52.14V44.85h7.29V8.42h-7.29V1.13h21.87V8.42h-7.29V44.85h7.29v7.29Z"/><path class="a390a087-ebe9-497e-8b5b-48319602dbe1" d="M300.9,23V52.14h-7.29v-51h7.29V12.06h3.65v3.65h3.64v3.64h3.64V23h3.65v3.64h3.64v3.64h3.65V1.13h7.28v51h-7.28V41.21h-3.65V37.56h-3.64V33.92h-3.65V30.28h-3.64V26.63h-3.64V23Z"/><path class="a390a087-ebe9-497e-8b5b-48319602dbe1" d="M346.49,30.28V52.14H339.2v-51h7.29V23h3.64V19.35h3.65V15.7h3.64V12.06h3.64V8.41h3.65V4.78h3.64V1.13h7.29V8.42H372v3.64h-3.64v3.65h-3.64v3.64h-3.65V23h-3.64v7.28h3.64v3.65h3.65v3.64h3.64v3.64H372v3.65h3.65v7.29h-7.29V48.5h-3.64V44.86h-3.65V41.21h-3.64V37.57h-3.64V33.93h-3.65V30.28Z"/><path class="a390a087-ebe9-497e-8b5b-48319602dbe1" d="M222.39,97.75v21.86H215.1v-51h7.29V90.47h21.86V68.61h7.29v51h-7.29V97.75Z"/><path class="a390a087-ebe9-497e-8b5b-48319602dbe1" d="M266.11,119.61h-7.29V83.18h3.65V79.54h3.64V75.89h3.65V72.25h3.64V68.61h7.29v3.64h3.64v3.64H288v3.65h3.65v3.64h3.64v36.43H288V105H266.11Zm0-21.86H288V86.82h-3.64V83.18h-3.64V79.53H273.4v3.65h-3.64v3.64h-3.65Z"/><path class="a390a087-ebe9-497e-8b5b-48319602dbe1" d="M313.47,112.33h14.58v-3.65h3.64V105H339v7.29h-3.64V116h-3.65v3.64H309.83V116h-3.64v-3.64h-3.65V75.89h3.65V72.25h3.64V68.61h21.86v3.64h3.65v3.64H339v7.29h-7.29V79.54h-3.64V75.89H313.47v3.65h-3.64v29.15h3.64v3.64Z"/><path class="a390a087-ebe9-497e-8b5b-48319602dbe1" d="M353.55,97.75v21.86h-7.29v-51h7.29V90.47h3.64V86.83h3.65V83.18h3.64V79.54h3.65V75.89h3.64V72.25h3.64V68.61h7.29v7.28h-3.64v3.65h-3.65v3.64h-3.64v3.65h-3.64v3.64h-3.65v7.29h3.65v3.64h3.64v3.65h3.64v3.64h3.65v3.64h3.64v7.29h-7.29V116h-3.64v-3.65h-3.64v-3.64h-3.65v-3.64h-3.64V101.4h-3.65V97.76h-3.64Z"/><path class="a390a087-ebe9-497e-8b5b-48319602dbe1" d="M397.28,119.61H390V83.18h3.64V79.54h3.65V75.89h3.64V72.25h3.64V68.61h7.29v3.64h3.65v3.64h3.64v3.65h3.64v3.64h3.65v36.43h-7.29V105H397.28Zm0-21.86h21.86V86.82H415.5V83.18h-3.65V79.53h-7.29v3.65h-3.64v3.64h-3.64Z"/><path class="a390a087-ebe9-497e-8b5b-48319602dbe1" d="M445.8,75.89H431.22V68.6h36.43v7.29H453.08v43.72h-7.29V75.89Z"/><path class="a390a087-ebe9-497e-8b5b-48319602dbe1" d="M482.23,97.75v21.86h-7.29v-51h7.29V90.47h21.86V68.61h7.29v51h-7.29V97.75Z"/><path class="a390a087-ebe9-497e-8b5b-48319602dbe1" d="M526,72.25V68.61h21.86v3.64h3.65v3.64h3.64v36.44h-3.64V116h-3.65v3.64H526V116H522.3v-3.64h-3.64V75.89h3.64V72.25Zm18.22,3.64H529.59v3.65H526v29.15h3.64v3.64h14.58v-3.64h3.64V79.54h-3.64Z"/><path class="a390a087-ebe9-497e-8b5b-48319602dbe1" d="M569.67,90.46v29.15h-7.28v-51h7.28V79.54h3.65v3.64H577v3.65h3.65v3.64h3.64v3.64h3.64v3.65h3.65V68.61h7.29v51h-7.29V108.68h-3.65V105h-3.64V101.4h-3.64V97.75H577V94.11h-3.64V90.46Z"/></g></g></svg>